<svg width="156" height="156" viewBox="0 0 156 156" fill="none" xmlns="http://www.w3.org/2000/svg">
<g id="ant-design:camera-outlined">
<path id="Vector" d="M131.625 37.7813H110.906L105.97 23.9484C105.629 23.0019 105.004 22.1837 104.181 21.6057C103.357 21.0276 102.376 20.7179 101.37 20.7188H54.6305C52.5738 20.7188 50.7305 22.0137 50.0449 23.9484L45.0938 37.7813H24.375C17.6414 37.7813 12.1875 43.2352 12.1875 49.9688V119.438C12.1875 126.171 17.6414 131.625 24.375 131.625H131.625C138.359 131.625 143.812 126.171 143.812 119.438V49.9688C143.812 43.2352 138.359 37.7813 131.625 37.7813ZM132.844 119.438C132.844 120.108 132.295 120.656 131.625 120.656H24.375C23.7047 120.656 23.1562 120.108 23.1562 119.438V49.9688C23.1562 49.2984 23.7047 48.75 24.375 48.75H52.8176L55.4227 41.468L58.9113 31.6875H97.0734L100.562 41.468L103.167 48.75H131.625C132.295 48.75 132.844 49.2984 132.844 49.9688V119.438ZM78 58.5C64.5328 58.5 53.625 69.4078 53.625 82.875C53.625 96.3422 64.5328 107.25 78 107.25C91.4672 107.25 102.375 96.3422 102.375 82.875C102.375 69.4078 91.4672 58.5 78 58.5ZM78 97.5C69.9258 97.5 63.375 90.9492 63.375 82.875C63.375 74.8008 69.9258 68.25 78 68.25C86.0742 68.25 92.625 74.8008 92.625 82.875C92.625 90.9492 86.0742 97.5 78 97.5Z" fill="#808080"/>
</g>
</svg>
