<svg width="185" height="185" viewBox="0 0 185 185" fill="none" xmlns="http://www.w3.org/2000/svg">
<g clip-path="url(#clip0_36_906)">
<path d="M92.4209 185C68.906 185 46.6189 176.222 29.351 160.089C11.2975 143.221 0.892844 120.332 0.0542147 95.6397C-0.784415 70.9466 8.04306 47.405 24.911 29.3515C41.7787 11.298 64.667 0.893359 89.3601 0.0547295C114.055 -0.782093 137.595 8.04393 155.648 24.9115C173.702 41.7792 184.106 64.6675 184.945 89.3606C185.784 114.054 176.956 137.595 160.088 155.649C143.221 173.702 120.332 184.107 95.6392 184.946C94.5646 184.982 93.4908 185 92.4209 185ZM92.5737 5.42001C91.5649 5.42001 90.5568 5.43699 89.544 5.47168C66.2976 6.26117 44.7505 16.0559 28.8715 33.0518C12.9921 50.0477 4.68167 72.2097 5.47116 95.4558C6.26065 118.702 16.0554 140.249 33.0513 156.128C49.3064 171.316 70.2903 179.579 92.4259 179.58C93.4344 179.58 94.4425 179.563 95.4556 179.529C118.702 178.739 140.249 168.944 156.128 151.949C172.008 134.953 180.318 112.791 179.529 89.5446C178.739 66.2985 168.944 44.751 151.948 28.8716C135.693 13.6845 114.709 5.42001 92.5737 5.42001ZM92.4816 172.248C92.3595 172.248 92.2392 172.248 92.117 172.247C71.9787 172.157 52.7791 164.53 38.0549 150.773C23.3302 137.016 14.4193 118.378 12.9625 98.2925C11.5139 78.3197 17.5375 58.705 29.9237 43.0615C30.3937 42.4678 31.0904 42.0979 31.8455 42.0415C32.5989 41.9848 33.3447 42.2467 33.8982 42.7638L114.516 118.085C115.609 119.107 115.668 120.822 114.646 121.915C113.624 123.009 111.909 123.067 110.816 122.046L32.3897 48.7715C22.0555 62.9397 17.0891 80.269 18.3678 97.9001C19.7257 116.62 28.0311 133.99 41.7544 146.813C55.4782 159.635 73.3723 166.743 92.1409 166.827C92.2536 166.827 92.3681 166.828 92.4809 166.828C110.036 166.828 126.856 160.704 140.205 149.505L118.795 129.501C117.701 128.479 117.643 126.764 118.665 125.671C119.687 124.577 121.402 124.519 122.495 125.541L146.097 147.592C146.65 148.109 146.962 148.834 146.957 149.591C146.952 150.348 146.63 151.068 146.07 151.578C131.393 164.915 112.374 172.247 92.4816 172.248ZM152.951 142.966C152.267 142.966 151.605 142.707 151.101 142.237L38.9018 37.4079C38.3486 36.8908 38.0368 36.166 38.0419 35.409C38.0473 34.6521 38.3689 33.9316 38.9293 33.4221C68.5548 6.50108 113.847 5.82433 144.282 31.8471C145.419 32.8198 145.553 34.5303 144.58 35.6681C143.608 36.8056 141.898 36.9393 140.76 35.9666C113.144 12.3549 72.4054 12.3285 44.7935 35.495L152.609 136.228C162.229 123.023 167.251 106.882 166.798 90.4508C166.319 73.0477 159.729 56.3105 148.242 43.322C147.251 42.2008 147.356 40.4882 148.476 39.4967C149.598 38.5049 151.31 38.6104 152.302 39.7316C164.629 53.6707 171.702 71.6302 172.216 90.3015C172.731 108.989 166.643 127.328 155.075 141.938C154.605 142.532 153.908 142.902 153.153 142.958C153.086 142.964 153.018 142.966 152.951 142.966Z" fill="black" fill-opacity="0.6"/>
</g>
<defs>
<clipPath id="clip0_36_906">
<rect width="185" height="185" fill="white"/>
</clipPath>
</defs>
</svg>
